<svg width="24" height="24" viewBox="0 0 24 24" fill="none" xmlns="http://www.w3.org/2000/svg">
<path d="M22.3445 10.8153C22.5413 10.7285 22.7082 10.5859 22.8247 10.4051C22.9412 10.2243 23.0022 10.0133 22.9999 9.79829C22.9977 9.58324 22.9325 9.37356 22.8122 9.19523C22.692 9.01691 22.5221 8.87776 22.3236 8.79504L12.9027 4.50391C12.6163 4.37327 12.3051 4.30566 11.9904 4.30566C11.6756 4.30566 11.3644 4.37327 11.078 4.50391L1.6582 8.79065C1.46252 8.87635 1.29605 9.01723 1.17915 9.19604C1.06225 9.37485 1 9.58385 1 9.79748C1 10.0111 1.06225 10.2201 1.17915 10.3989C1.29605 10.5777 1.46252 10.7186 1.6582 10.8043L11.078 15.0999C11.3644 15.2305 11.6756 15.2981 11.9904 15.2981C12.3051 15.2981 12.6163 15.2305 12.9027 15.0999L22.3445 10.8153Z" stroke="#17191C" stroke-width="1.5" stroke-linecap="round" stroke-linejoin="round"/>
<path d="M22 11V17" stroke="#17191C" stroke-width="1.5" stroke-linecap="round" stroke-linejoin="round"/>
<path d="M5.39258 12.5497V16.3968C5.39258 17.2714 6.08741 18.1101 7.32421 18.7285C8.56101 19.3469 10.2385 19.6943 11.9876 19.6943C13.7367 19.6943 15.4141 19.3469 16.6509 18.7285C17.8877 18.1101 18.5826 17.2714 18.5826 16.3968V12.5497" stroke="#17191C" stroke-width="1.5" stroke-linecap="round" stroke-linejoin="round"/>
</svg>
