<svg width="24" height="24" viewBox="0 0 24 24" fill="none" xmlns="http://www.w3.org/2000/svg">
<path d="M12 19V22" stroke="#17191C" stroke-width="1.5" stroke-linecap="round" stroke-linejoin="round"/>
<path d="M19 10V12C19 13.8565 18.2625 15.637 16.9497 16.9497C15.637 18.2625 13.8565 19 12 19C10.1435 19 8.36301 18.2625 7.05025 16.9497C5.7375 15.637 5 13.8565 5 12V10" stroke="#17191C" stroke-width="1.5" stroke-linecap="round" stroke-linejoin="round"/>
<path d="M9.75 11.1641V12C9.75 13.2426 10.7574 14.25 12 14.25C12.2509 14.25 12.4914 14.2066 12.7168 14.1309L13.8477 15.2617C13.3021 15.5714 12.6722 15.75 12 15.75C9.92893 15.75 8.25 14.0711 8.25 12V9.66406L9.75 11.1641ZM12 1.25C14.0711 1.25 15.75 2.92893 15.75 5V12C15.75 12.6722 15.5714 13.3021 15.2617 13.8477L14.1309 12.7168C14.2066 12.4914 14.25 12.2509 14.25 12V5C14.25 3.75736 13.2426 2.75 12 2.75C10.7574 2.75 9.75 3.75736 9.75 5V8.33594L8.25 6.83594V5C8.25 2.92893 9.92893 1.25 12 1.25Z" fill="#17191C"/>
<path d="M4 4L20 20" stroke="black" stroke-width="1.5" stroke-linecap="round"/>
</svg>
