<svg width="64" height="64" viewBox="0 0 64 64" fill="none" xmlns="http://www.w3.org/2000/svg">
<path d="M58.7421 56.2469C58.7421 57.8952 56.7619 58.7346 55.5773 57.5882L55.3515 57.3696L33.2616 35.993C32.5379 35.2928 31.3891 35.2928 30.6653 35.9933L8.57814 57.3696L8.3523 57.5882C7.16782 58.7346 5.1875 57.8952 5.1875 56.2469V7.6618C5.1875 6.0135 7.16782 5.17414 8.3523 6.32041L8.57814 6.53897L30.6656 27.913C31.3891 28.6133 32.5379 28.6133 33.2616 27.913L55.3515 6.53897L55.5773 6.32041C56.7619 5.17414 58.7421 6.0135 58.7421 7.6618V56.2469ZM9.1875 46.8093C9.1875 48.4576 11.1678 49.297 12.3523 48.1509L23.7058 37.1637C24.9115 35.9968 24.0855 33.9557 22.4077 33.9557H11.0542C10.0232 33.9557 9.1875 34.7914 9.1875 35.8224V46.8093ZM51.5773 48.1509C52.7619 49.297 54.7421 48.4576 54.7421 46.8093V35.8224C54.7421 34.7914 53.9064 33.9557 52.8755 33.9557H41.5221C39.8443 33.9557 39.0181 35.9968 40.224 37.1637L51.5773 48.1509ZM9.1875 28.089C9.1875 29.12 10.0232 29.9557 11.0542 29.9557H22.4108C24.0885 29.9557 24.9146 27.9144 23.709 26.7477L12.3524 15.7558C11.168 14.6094 9.1875 15.4488 9.1875 17.0971V28.089ZM40.2208 26.7477C39.0152 27.9144 39.8411 29.9557 41.5189 29.9557H52.8755C53.9064 29.9557 54.7421 29.12 54.7421 28.089V17.0971C54.7421 15.4488 52.7619 14.6094 51.5773 15.7558L40.2208 26.7477Z" fill="#066BF9"/>
</svg>
