<svg width="24" height="24" viewBox="0 0 24 24" fill="none" xmlns="http://www.w3.org/2000/svg">
<path d="M21 16.529C21 17.0037 20.8104 17.459 20.4728 17.7946C20.1352 18.1303 19.6774 18.3189 19.2 18.3189H7.3452C6.86785 18.319 6.41009 18.5076 6.0726 18.8433L4.0908 20.8139C4.00143 20.9028 3.88758 20.9633 3.76364 20.9878C3.6397 21.0123 3.51123 20.9997 3.39448 20.9516C3.27772 20.9036 3.17793 20.8221 3.10772 20.7176C3.0375 20.6132 3.00002 20.4903 3 20.3647V5.78986C3 5.31516 3.18964 4.8599 3.52721 4.52424C3.86477 4.18857 4.32261 4 4.8 4H19.2C19.6774 4 20.1352 4.18857 20.4728 4.52424C20.8104 4.8599 21 5.31516 21 5.78986V16.529Z" stroke="#17191C" stroke-width="1.5" stroke-linecap="round" stroke-linejoin="round"/>
<path d="M12 8V14" stroke="#17191C" stroke-width="1.5" stroke-linecap="round" stroke-linejoin="round"/>
<path d="M9 11H15" stroke="#17191C" stroke-width="1.5" stroke-linecap="round" stroke-linejoin="round"/>
</svg>
