<svg width="140" height="140" viewBox="0 0 140 140" fill="none" xmlns="http://www.w3.org/2000/svg">
<g clip-path="url(#clip0_1065_6381)">
<circle cx="70" cy="70" r="70" fill="#E6F0FE"/>
<circle cx="70" cy="70" r="60" fill="#CDE1FE"/>
<g clip-path="url(#clip1_1065_6381)">
<mask id="mask0_1065_6381" style="mask-type:luminance" maskUnits="userSpaceOnUse" x="20" y="20" width="100" height="100">
<path d="M120 20H20V120H120V20Z" fill="white"/>
</mask>
<g mask="url(#mask0_1065_6381)">
<path d="M70 120C97.6142 120 120 97.6142 120 70C120 42.3858 97.6142 20 70 20C42.3858 20 20 42.3858 20 70C20 97.6142 42.3858 120 70 120Z" fill="url(#paint0_linear_1065_6381)"/>
<path d="M45 65.5961L61.6415 88L94 53" stroke="white" stroke-width="8" stroke-linecap="round" stroke-linejoin="round"/>
</g>
</g>
</g>
<defs>
<linearGradient id="paint0_linear_1065_6381" x1="109.5" y1="28" x2="6" y2="135.5" gradientUnits="userSpaceOnUse">
<stop stop-color="#066BF9"/>
<stop offset="1" stop-color="#E6F0FE"/>
</linearGradient>
<clipPath id="clip0_1065_6381">
<rect width="140" height="140" fill="white"/>
</clipPath>
<clipPath id="clip1_1065_6381">
<rect width="100" height="100" fill="white" transform="translate(20 20)"/>
</clipPath>
</defs>
</svg>
